# xmcd
#
# Track frame offsets: 
#        150
#        10397
#        24509
#        38133
#        50268
#        61194
#        76998
#        92144
#        102470
#        114037
#
# Disc length: 1661 seconds
#
# Revision: 0
# Processed by: cddbd v1.5.2PL0 Copyright (c) Steve Scherf et al.
# Submitted via: ExactAudioCopyFreeDBPlugin 1.0
#
DISCID=6f067b0a
DTITLE=Porter Wagoner and Dolly Parton - Together Always
DYEAR=1972
DGENRE=Country
TTITLE0=Together Always
TTITLE1=Love's All Over
TTITLE2=Christina
TTITLE3=Poor Folks Town
TTITLE4=Take Away
TTITLE5=Ten-Four Over And Out
TTITLE6=Lost Forever In Your Kiss
TTITLE7=Anyplace You Want To Go
TTITLE8=Looking Down
TTITLE9=You And Me, Her And Him
EXTD=
EXTT0=
EXTT1=
EXTT2=
EXTT3=
EXTT4=
EXTT5=
EXTT6=
EXTT7=
EXTT8=
EXTT9=
PLAYORDER=
